<svg width="62" height="63" viewBox="0 0 62 63" fill="none" xmlns="http://www.w3.org/2000/svg">
<path d="M61.6919 43.4864C61.6885 43.2999 61.6224 43.1202 61.5047 42.977L57.513 38.117L53.1188 32.7661L49.1231 27.9061C49.0052 27.7626 48.8426 27.6645 48.6621 27.628L38.7605 25.6234L49.0607 12.9416C49.1285 12.8582 49.1794 12.7619 49.2104 12.6584C49.2414 12.5548 49.2519 12.4461 49.2412 12.3384C49.2305 12.2307 49.1989 12.1263 49.1482 12.0311C49.0976 11.9359 49.0288 11.8519 48.946 11.7839L34.7809 0.182045C34.6379 0.0645029 34.4596 0.000258701 34.2757 0H14.9515C14.7675 0.000258701 14.5892 0.0645029 14.4462 0.182045L0.299263 11.7818C0.216411 11.8498 0.147657 11.9338 0.0969836 12.029C0.0463097 12.1242 0.0147236 12.2287 0.00405224 12.3363C-0.0066191 12.444 0.00383746 12.5528 0.0348164 12.6563C0.0657953 12.7599 0.11668 12.8561 0.184526 12.9395L24.0016 42.257C24.0772 42.3501 24.172 42.4249 24.2794 42.4764C24.3867 42.5278 24.5039 42.5544 24.6226 42.5544C24.7413 42.5544 24.8585 42.5278 24.9659 42.4764C25.0732 42.4249 25.1681 42.3501 25.2436 42.257L27.0452 40.0398L22.9891 62.0325C22.9675 62.1507 22.9718 62.2723 23.0017 62.3886C23.0316 62.5049 23.0864 62.6131 23.1621 62.7055C23.2378 62.7978 23.3326 62.8721 23.4398 62.923C23.547 62.9739 23.6639 63.0002 23.7822 63L61.1947 62.7955C61.3016 62.7955 61.4075 62.7738 61.5061 62.7318C61.6047 62.6898 61.6941 62.6283 61.7691 62.5508C61.844 62.4733 61.9031 62.3814 61.9427 62.2805C61.9823 62.1795 62.0017 62.0716 61.9999 61.963L61.6919 43.4864ZM55.947 38.7634L51.2206 48.4691L41.9611 37.2007L52.2049 34.2123L55.947 38.7634ZM51.0797 32.8316L40.8378 35.822L32.8384 26.0836L48.0663 29.1723L51.0797 32.8316ZM30.8295 24.0198C30.7422 24.0055 30.6532 24.0055 30.5658 24.0198L33.6839 13.1789H46.778L36.967 25.247L30.8295 24.0198ZM33.9999 1.6425L46.0896 11.5425H33.6094L29.3057 1.63432L33.9999 1.6425ZM21.7049 1.6425H27.5424L31.846 11.5425H17.3992L21.7049 1.6425ZM15.2453 1.6425H19.9435L15.6399 11.5425H3.15965L15.2453 1.6425ZM2.4672 13.1789H15.5614L22.7496 38.1436L2.4672 13.1789ZM24.6216 38.8227L17.2381 13.1789H32.0071L24.6216 38.8227ZM26.4957 38.1457L28.9937 29.4668L27.6571 36.7159L26.4957 38.1457ZM31.1576 26.6011L39.5476 36.8161L25.2939 58.4202L31.1576 26.6011ZM40.6184 38.1334L50.0793 49.6554L25.9824 60.3164L40.6184 38.1334ZM27.6933 61.3432L51.1642 50.9543L59.5521 61.1673L27.6933 61.3432ZM52.3498 49.8436L57.0762 40.138L60.0856 43.8034L60.3452 59.582L52.3498 49.8436Z" fill="white"/>
</svg>
