<svg width="63" height="63" viewBox="0 0 63 63" fill="none" xmlns="http://www.w3.org/2000/svg">
<path d="M62.12 54.6077C60.545 54.606 59.0351 53.9797 57.9214 52.866C56.8078 51.7524 56.1814 50.2424 56.1798 48.6674C56.1798 48.4507 56.0937 48.2428 55.9404 48.0895C55.7871 47.9362 55.5792 47.8501 55.3624 47.8501C55.1456 47.8501 54.9377 47.9362 54.7844 48.0895C54.6311 48.2428 54.545 48.4507 54.545 48.6674C54.5434 50.242 53.9173 51.7517 52.8041 52.8653C51.6909 53.9789 50.1814 54.6055 48.6069 54.6077C48.3901 54.6077 48.1822 54.6938 48.0289 54.8471C47.8756 55.0003 47.7895 55.2083 47.7895 55.425C47.7895 55.6418 47.8756 55.8497 48.0289 56.003C48.1822 56.1563 48.3901 56.2424 48.6069 56.2424C50.1814 56.2446 51.6909 56.8712 52.8041 57.9848C53.9173 59.0984 54.5434 60.608 54.545 62.1826C54.545 62.3994 54.6311 62.6073 54.7844 62.7606C54.9377 62.9139 55.1456 63 55.3624 63C55.5792 63 55.7871 62.9139 55.9404 62.7606C56.0937 62.6073 56.1798 62.3994 56.1798 62.1826C56.1819 60.608 56.8085 59.0986 57.9221 57.9854C59.0357 56.8721 60.5454 56.2461 62.12 56.2444C62.3368 56.2444 62.5447 56.1583 62.698 56.005C62.8512 55.8518 62.9374 55.6439 62.9374 55.4271C62.9374 55.2103 62.8512 55.0024 62.698 54.8491C62.5447 54.6958 62.3368 54.6097 62.12 54.6097V54.6077ZM55.3624 58.7599C54.635 57.3245 53.4709 56.1568 52.0378 55.425C53.4745 54.6936 54.6421 53.5253 55.3726 52.0881C56.1045 53.525 57.2726 54.6932 58.7095 55.425C57.2686 56.1538 56.0965 57.3216 55.3624 58.7599Z" fill="white"/>
<path d="M7.575 47.8501C7.35822 47.8501 7.15032 47.9362 6.99703 48.0895C6.84374 48.2428 6.75763 48.4507 6.75763 48.6674V52.6705C6.75763 52.8873 6.84374 53.0952 6.99703 53.2485C7.15032 53.4018 7.35822 53.4879 7.575 53.4879C7.79178 53.4879 7.99968 53.4018 8.15296 53.2485C8.30625 53.0952 8.39237 52.8873 8.39237 52.6705V48.6674C8.39237 48.4507 8.30625 48.2428 8.15296 48.0895C7.99968 47.9362 7.79178 47.8501 7.575 47.8501Z" fill="white"/>
<path d="M7.575 57.3601C7.35822 57.3601 7.15032 57.4462 6.99703 57.5995C6.84374 57.7528 6.75763 57.9607 6.75763 58.1775V62.1826C6.75763 62.3994 6.84374 62.6073 6.99703 62.7605C7.15032 62.9138 7.35822 62.9999 7.575 62.9999C7.79178 62.9999 7.99968 62.9138 8.15296 62.7605C8.30625 62.6073 8.39237 62.3994 8.39237 62.1826V58.1775C8.39237 57.9607 8.30625 57.7528 8.15296 57.5995C7.99968 57.4462 7.79178 57.3601 7.575 57.3601Z" fill="white"/>
<path d="M14.3326 54.6076H10.3296C10.1128 54.6076 9.90489 54.6937 9.75161 54.847C9.59832 55.0003 9.51221 55.2082 9.51221 55.425C9.51221 55.6418 9.59832 55.8497 9.75161 56.0029C9.90489 56.1562 10.1128 56.2423 10.3296 56.2423H14.3326C14.5494 56.2423 14.7573 56.1562 14.9106 56.0029C15.0639 55.8497 15.15 55.6418 15.15 55.425C15.15 55.2082 15.0639 55.0003 14.9106 54.847C14.7573 54.6937 14.5494 54.6076 14.3326 54.6076Z" fill="white"/>
<path d="M4.82043 54.6076H0.817368C0.600589 54.6076 0.392689 54.6937 0.239403 54.847C0.0861163 55.0003 0 55.2082 0 55.425C0 55.6418 0.0861163 55.8497 0.239403 56.0029C0.392689 56.1562 0.600589 56.2423 0.817368 56.2423H4.82043C5.03721 56.2423 5.24511 56.1562 5.3984 56.0029C5.55168 55.8497 5.6378 55.6418 5.6378 55.425C5.6378 55.2082 5.55168 55.0003 5.3984 54.847C5.24511 54.6937 5.03721 54.6076 4.82043 54.6076Z" fill="white"/>
<path d="M62.5858 12.8259L44.3666 0.207734C44.2306 0.112735 44.0688 0.061418 43.9028 0.0606079H19.0364C18.8698 0.0610025 18.7072 0.112339 18.5705 0.207734L0.35139 12.8259C0.178502 12.946 0.0586342 13.1282 0.0167608 13.3345C-0.0251127 13.5408 0.0142376 13.7554 0.126615 13.9334L30.7861 62.6158C30.8597 62.7328 30.9618 62.8291 31.0827 62.8959C31.2037 62.9627 31.3396 62.9977 31.4778 62.9977C31.616 62.9977 31.7519 62.9627 31.8728 62.8959C31.9938 62.8291 32.0959 62.7328 32.1695 62.6158L62.8208 13.9334C62.9321 13.7541 62.9699 13.5388 62.9261 13.3323C62.8823 13.1259 62.7603 12.9444 62.5858 12.8259ZM43.6474 1.69739L59.394 12.6093H42.8423L37.2392 1.69739H43.6474ZM35.4001 1.69739L41.0154 12.6113H21.9238L27.537 1.69739H35.4001ZM19.2918 1.69739H25.7L20.0847 12.6093H3.533L19.2918 1.69739ZM2.25382 14.244H19.9294L29.6418 57.7443L2.25382 14.244ZM31.4747 58.4309L21.603 14.244H41.3342L31.4747 58.4309ZM33.3138 57.7443L43.0098 14.244H60.6854L33.3138 57.7443Z" fill="white"/>
</svg>
