<svg width="63" height="63" viewBox="0 0 63 63" fill="none" xmlns="http://www.w3.org/2000/svg">
<path d="M62.9993 44.2043V18.7854C63.0002 18.7691 63.0002 18.7527 62.9993 18.7363C62.9979 18.7 62.9945 18.6638 62.989 18.6279C62.968 18.5212 62.9263 18.4197 62.8663 18.3291C62.8453 18.2994 62.8221 18.2713 62.7967 18.2452C62.7844 18.233 62.7762 18.2186 62.764 18.2064L44.7956 0.23735C44.7813 0.223028 44.7649 0.212797 44.7506 0.20052C44.726 0.177105 44.7001 0.155238 44.6728 0.135045C44.5485 0.0499314 44.402 0.0029938 44.2513 0H44.2166H18.776H18.7433C18.7014 0.00104687 18.6597 0.00515109 18.6185 0.0122778C18.5125 0.0332096 18.4116 0.0749345 18.3218 0.135045C18.2939 0.155235 18.2673 0.177101 18.242 0.20052C18.2268 0.211683 18.2124 0.223996 18.199 0.23735L0.226581 18.2002C0.219581 18.2102 0.212069 18.2197 0.204074 18.2289C0.17529 18.259 0.148628 18.2912 0.124278 18.325C0.0641705 18.4149 0.0224456 18.5157 0.00151449 18.6217C-0.000504831 18.6572 -0.000504831 18.6927 0.00151449 18.7281V18.7793V44.2125V44.2637C-0.000407926 44.2991 -0.000407926 44.3346 0.00151449 44.3701C0.0121946 44.4233 0.0279538 44.4754 0.0485742 44.5256C0.0676875 44.5706 0.0909769 44.6138 0.118139 44.6545L0.142692 44.6811C0.164178 44.7123 0.188124 44.7417 0.214303 44.7691C0.217946 44.7754 0.222814 44.781 0.228626 44.7854L18.2011 62.7606C18.2145 62.7739 18.2288 62.7863 18.2441 62.7974C18.2689 62.8207 18.2955 62.8419 18.3239 62.8608C18.4129 62.9214 18.513 62.9638 18.6185 62.9857C18.6711 62.9955 18.7245 63.0003 18.7781 63H44.2022C44.2558 63.0003 44.3092 62.9955 44.3618 62.9857C44.468 62.9641 44.5689 62.9217 44.6585 62.8608C44.6862 62.842 44.7122 62.8208 44.7363 62.7974C44.7506 62.7851 44.7669 62.7749 44.7813 62.7606L62.7517 44.7895C62.7517 44.7895 62.7619 44.7773 62.7681 44.7732C62.793 44.7452 62.8162 44.7159 62.8376 44.6852L62.8601 44.6545C62.8873 44.6138 62.9106 44.5706 62.9297 44.5256C62.9503 44.4754 62.9661 44.4233 62.9768 44.3701C62.9822 44.3341 62.9856 44.2979 62.987 44.2616C62.988 44.2453 62.988 44.2289 62.987 44.2125L62.9993 44.2043ZM44.4887 60.7452L40.0406 50.001L49.9885 40.0528L60.7384 44.5051L44.4887 60.7452ZM2.24398 44.499L12.9939 40.0466L22.9418 50.001L18.4896 60.7513L2.24398 44.499ZM1.61789 20.011L12.3678 24.4634V38.5427L1.61789 42.9869V20.011ZM18.4896 2.25278L22.9418 13.0031L12.9939 22.9513L2.24398 18.4908L18.4896 2.25278ZM60.7343 18.4908L49.9844 22.9513L40.0406 13.0031L44.4928 2.25278L60.7343 18.4908ZM38.7311 48.9779H24.3597C24.329 48.9616 24.3004 48.9431 24.2676 48.9288C24.2348 48.9167 24.2013 48.9065 24.1674 48.8981L14.0047 38.7473V24.2567L24.2472 14.0139H38.7311L48.9736 24.2567V38.7473L38.7311 48.9779ZM38.5265 12.3708H24.4538L20.0016 1.61848H42.9767L38.5265 12.3708ZM24.4538 50.6148H38.5245L42.9767 61.3651H20.0016L24.4538 50.6148ZM50.6105 38.5427V24.4634L61.3624 20.011V42.9869L50.6105 38.5427Z" fill="white"/>
</svg>
