<svg width="75" height="75" viewBox="0 0 75 75" fill="none" xmlns="http://www.w3.org/2000/svg">
<path d="M19.5434 68.2305C19.6623 68.4307 19.831 68.5965 20.0333 68.7119C20.2355 68.8273 20.4641 68.8882 20.6969 68.8887H54.8903C55.1265 68.8885 55.3584 68.8259 55.5626 68.7074C55.7669 68.5889 55.9362 68.4186 56.0536 68.2137L73.2129 38.1652C73.3285 37.9619 73.389 37.732 73.3884 37.4982C73.3877 37.2643 73.3259 37.0348 73.2091 36.8322L55.8139 6.77959C55.6959 6.57659 55.5268 6.40807 55.3233 6.29082C55.1199 6.17356 54.8893 6.11168 54.6545 6.11133H20.2253C19.9898 6.1116 19.7585 6.1738 19.5547 6.29169C19.3508 6.40957 19.1816 6.579 19.0639 6.78296L1.78917 36.8297C1.67156 37.0348 1.61034 37.2674 1.61173 37.5038C1.61312 37.7402 1.67707 37.972 1.79708 38.1757L19.5434 68.2305ZM12.1436 21.7583L25.3333 20.3199L16.2952 35.4974L11.5843 22.731L12.1436 21.7583ZM63.1572 52.8201L49.8097 54.6365L58.2955 39.5426L63.1677 52.8013L63.1572 52.8201ZM37.204 67.4246L28.7392 56.6033H46.3702L37.4736 67.4238L37.204 67.4246ZM11.6758 52.0252L16.2954 39.503L25.3062 54.6398L12.1452 52.8201L11.6758 52.0252ZM25.0818 38.245L30.4272 47.6772L26.837 54.3475L17.2494 38.2418L25.0818 38.245ZM31.9011 27.9583L43.1486 27.7705L48.422 37.4955L43.2183 46.8479L31.6887 46.9324L26.3525 37.5171L31.9011 27.9583ZM31.703 48.3971L43.224 48.3127L47.059 55.1377H28.0746L31.703 48.3971ZM44.4899 47.5753L49.6884 38.2324H57.3517L48.2934 54.3445L44.4899 47.5753ZM49.6938 36.7676L44.4171 27.0369L48.0314 20.6014L57.3372 36.7676H49.6938ZM43.148 26.3055L31.898 26.4933L28.1382 19.8686H46.7629L43.148 26.3055ZM30.6309 27.2284L25.0871 36.7792L17.2384 36.7759L26.8702 20.6016L30.6309 27.2284ZM35.3441 67.4237H21.4625L27.1207 56.9109L35.3441 67.4237ZM48.0381 56.8799L53.9622 67.4232H39.37L48.0381 56.8799ZM59.3747 38.2324H71.4873L64.1174 51.1386L59.3747 38.2324ZM59.3906 36.7676L64.2867 24.342L71.4788 36.7676H59.3906ZM63.3501 22.7237L58.3084 35.5185L49.5974 20.3867L63.1572 22.3913L63.3501 22.7237ZM46.189 18.4037H28.7386L37.204 7.57617H37.8136L46.189 18.4037ZM39.6655 7.57617H53.6662L47.7775 18.0625L39.6655 7.57617ZM27.1264 18.087L21.1614 7.57617H35.3446L27.1264 18.087ZM15.2055 36.7761L3.51212 36.7712L10.6336 24.3853L15.2055 36.7761ZM15.1992 38.2409L10.7149 50.3978L3.53394 38.2361L15.1992 38.2409ZM13.0957 54.4302L25.8434 56.1929L20.2608 66.565L13.0957 54.4302ZM55.2334 66.6959L49.3253 56.1809L62.2418 54.423L55.2334 66.6959ZM62.22 20.7715L49.031 18.8218L54.97 8.24561L62.22 20.7715ZM19.8847 8.29438L25.8419 18.7909L13.0477 20.1855L19.8847 8.29438Z" fill="#313131"/>
</svg>
