<svg width="75" height="75" viewBox="0 0 75 75" fill="none" xmlns="http://www.w3.org/2000/svg">
<path d="M38.667 6.92567C38.5488 6.72083 38.3786 6.55073 38.1738 6.43247C37.9689 6.31421 37.7365 6.25195 37.5 6.25195C37.2635 6.25195 37.0311 6.31421 36.8262 6.43247C36.6214 6.55073 36.4513 6.72083 36.333 6.92567L1.79283 66.7264C1.67454 66.9313 1.61227 67.1637 1.61227 67.4003C1.61228 67.6369 1.67456 67.8693 1.79285 68.0741C1.91114 68.279 2.08128 68.4491 2.28616 68.5674C2.49104 68.6857 2.72344 68.7479 2.96001 68.7479H72.04C72.2766 68.7479 72.509 68.6857 72.7139 68.5674C72.9187 68.4491 73.0889 68.279 73.2072 68.0741C73.3255 67.8693 73.3877 67.6369 73.3877 67.4003C73.3877 67.1637 73.3255 66.9313 73.2072 66.7264L38.667 6.92567ZM71.0604 65.9384L55.4788 56.3436C55.4579 56.2403 55.4208 56.1409 55.3688 56.0492L38.4007 25.567C38.3565 25.4909 38.3028 25.4207 38.2408 25.3582L38.2334 9.10375L71.0604 65.9384ZM37.5177 47.0036L52.3797 56.1554L22.1462 56.4642L37.5177 47.0036ZM38.2501 45.7344L38.2421 28.2936L53.0099 54.8233L38.2501 45.7344ZM36.7853 45.7344L21.5975 55.0818L36.7772 28.2287L36.7853 45.7344ZM19.7969 57.9101C19.8902 57.9365 19.9867 57.95 20.0836 57.9501L54.4623 57.5986C54.5363 57.5979 54.6099 57.5893 54.682 57.5728L70.4506 67.2832H4.56768L19.7969 57.9101ZM36.7686 9.10038L36.7759 25.3418C36.7068 25.4083 36.6474 25.4841 36.5993 25.567C36.5982 25.569 36.5971 25.5709 36.5959 25.573L19.1748 56.3904C19.1307 56.4673 19.0966 56.5495 19.0734 56.6351L3.92959 65.9558L36.7686 9.10038Z" fill="#313131"/>
</svg>
