<svg width="65" height="65" viewBox="0 0 65 65" fill="none" xmlns="http://www.w3.org/2000/svg">
<path d="M61.6886 32.5223L63.5718 24.9312C63.6174 24.7443 63.6146 24.5488 63.5635 24.3632C63.5124 24.1777 63.4147 24.0083 63.2798 23.871L57.508 18.0363L55.4709 10.2617C55.4203 10.0694 55.3197 9.89389 55.1792 9.75316C55.0387 9.61243 54.8633 9.51148 54.6711 9.4606L46.96 7.4244L41.3216 1.72928C41.1818 1.58825 41.0071 1.48676 40.8153 1.43514C40.6236 1.38352 40.4215 1.3836 40.2298 1.43538L32.4279 3.54712L24.571 1.60004C24.3877 1.55403 24.1957 1.55529 24.013 1.60369C23.8303 1.65209 23.6628 1.74606 23.5263 1.8768L17.7021 7.42465L10.0612 9.54299C9.87212 9.59573 9.70014 9.69696 9.56228 9.83665C9.42441 9.97634 9.32545 10.1496 9.2752 10.3394L7.19698 18.239L1.72657 23.6555C1.58613 23.795 1.48494 23.969 1.4332 24.1601C1.38147 24.3511 1.38103 24.5524 1.43191 24.7437L3.50861 32.5006L1.43204 40.3364C1.38088 40.5298 1.3823 40.7334 1.43615 40.9261C1.49001 41.1188 1.59434 41.2937 1.73838 41.4326L7.48275 46.9669L9.35709 54.7166C9.40482 54.9148 9.5057 55.0962 9.64887 55.2413C9.79203 55.3865 9.97206 55.4898 10.1696 55.5403L17.9131 57.5295L23.6737 63.2747C23.8142 63.4147 23.9892 63.5149 24.1809 63.5654C24.3727 63.6159 24.5744 63.6148 24.7655 63.5622L32.3945 61.4548L40.0833 63.5628C40.2738 63.6149 40.4747 63.6158 40.6657 63.5655C40.8568 63.5153 41.0312 63.4156 41.1714 63.2765L46.9605 57.5264L54.8005 55.4148C54.9917 55.3632 55.1659 55.262 55.3055 55.1214C55.445 54.9808 55.545 54.8059 55.5952 54.6143L57.5503 47.129L63.279 41.3762C63.4141 41.2398 63.5121 41.0712 63.5639 40.8863C63.6157 40.7015 63.6196 40.5065 63.5751 40.3197L61.6886 32.5223ZM62.3199 24.7054L60.5471 31.8513L45.8877 31.743L44.5635 25.8448L56.808 19.1333L62.3199 24.7054ZM43.2564 39.053L39.0825 42.8538L32.9063 44.6832L26.6633 43.0351L21.9866 39.1584L20.2759 32.3454L21.7382 25.8317L26.3449 21.8421L32.5941 20.3152L38.5253 21.8406L43.2599 25.8362L44.7236 32.3552L43.2564 39.053ZM56.1929 18.0228L43.933 24.743L39.6599 21.1375L46.9501 8.73417L54.265 10.6658L56.1929 18.0228ZM40.4803 2.68308L45.8479 8.10461L38.5417 20.5333L33.214 19.1631L33.0713 4.68818L40.4803 2.68308ZM24.3437 2.85154L31.8018 4.69985L31.9445 19.1673L26.3159 20.5425L18.8611 8.07401L24.3437 2.85154ZM10.4814 10.7438L17.7703 8.72313L25.2017 21.1531L21.0843 24.7191L8.52364 18.1857L10.4814 10.7438ZM2.6805 24.4977L7.92442 19.3053L20.4412 25.8161L19.1178 31.7114L4.6517 31.8598L2.6805 24.4977ZM2.68126 40.5782L4.65551 33.1294L19.127 32.9808L20.6885 39.1972L8.19978 45.8949L2.68126 40.5782ZM8.8004 47.0133L21.3526 40.282L25.5227 43.7388L17.969 56.2338L10.5706 54.3333L8.8004 47.0133ZM24.5096 62.3158L19.0606 56.8815L26.6414 44.3422L32.2533 45.8238L31.8259 60.295L24.5096 62.3158ZM40.3367 62.3165L33.095 60.331L33.5234 45.8247L39.0721 44.181L45.8488 56.8409L40.3367 62.3165ZM54.3885 54.2117L46.9531 56.2139L40.1838 43.568L43.9111 40.1739L56.2333 47.1465L54.3885 54.2117ZM56.8477 46.0359L44.5507 39.0772L45.8797 33.0126L60.5272 33.1207L62.3213 40.539L56.8477 46.0359Z" fill="#313131"/>
</svg>
