<svg width="67" height="67" viewBox="0 0 67 67" fill="none" xmlns="http://www.w3.org/2000/svg">
<path d="M51.5153 2.10227C51.274 1.87783 50.9566 1.75325 50.6271 1.75366H16.5074C16.1802 1.75331 15.8649 1.87613 15.6242 2.09769L1.86172 14.7349C1.72477 14.8606 1.61624 15.014 1.54342 15.185C1.47059 15.356 1.43514 15.5406 1.43944 15.7264L2.28466 52.1708C2.289 52.3515 2.33079 52.5293 2.40737 52.6931C2.48395 52.8568 2.59367 53.0029 2.72958 53.1221L16.2107 64.9237C16.4487 65.132 16.7543 65.2468 17.0706 65.2468H50.4986C50.8106 65.2469 51.1124 65.1352 51.3492 64.932L65.1058 53.1327C65.2486 53.0103 65.3632 52.8584 65.4417 52.6874C65.5202 52.5165 65.5607 52.3306 65.5605 52.1425V15.7003C65.5603 15.5208 65.5231 15.3432 65.4513 15.1787C65.3794 15.0142 65.2745 14.8662 65.1431 14.7439L51.5153 2.10227ZM52.0204 21.5677L34.3487 41.5263L34.2225 16.1134L52.0204 16.1275V21.5677ZM34.2159 14.8051L34.1576 3.06226H37.5197L50.9339 14.8188L34.2159 14.8051ZM32.9073 14.804L16.1008 14.7909L30.2023 3.06226H32.8486L32.9073 14.804ZM32.9139 16.1126L33.0405 41.5942L14.9624 21.5811L14.9486 16.0981L32.9139 16.1126ZM13.64 16.0973L13.654 21.6217L3.32918 40.7868L2.75588 16.0887L13.64 16.0973ZM3.58213 51.6649L3.39094 43.4324L13.6609 24.3685L13.73 51.6658L3.58213 51.6649ZM14.9669 23.539L33.0502 43.5571L33.0905 51.6646H15.0386L14.9669 23.539ZM33.0971 52.9732L33.1516 63.9384H30.1933L16.2738 52.9731L33.0971 52.9732ZM34.4057 52.9732H50.8505L37.5314 63.938H34.4602L34.4057 52.9732ZM34.3993 51.6646L34.3586 43.4893L52.0204 23.5417V51.6647L34.3993 51.6646ZM53.329 24.2848L64.253 43.4486V51.6646H53.329V24.2848ZM53.329 21.6423V16.1288L64.2519 16.1375L64.2529 40.806L53.329 21.6423ZM63.3116 14.8281L52.9214 14.8198L39.5051 3.06226H50.6252L63.3116 14.8281ZM16.5085 3.06226H28.1562L14.0564 14.789L3.74688 14.7808L16.5085 3.06226ZM4.5446 52.9732H14.159L28.0786 63.938H17.0733L4.5446 52.9732ZM50.4986 63.938H39.5904L52.9096 52.9729H63.2815L50.4986 63.938Z" fill="#313131"/>
</svg>
