<svg width="63" height="63" viewBox="0 0 63 63" fill="none" xmlns="http://www.w3.org/2000/svg">
<g clip-path="url(#clip0_7348_11)">
<path d="M62.7118 50.1819L49.1275 36.5975C49.1948 36.5447 49.2655 36.4964 49.3391 36.4528L52.9596 34.5264C53.8855 34.0396 54.5845 33.2103 54.9077 32.2154C55.2308 31.2206 55.1524 30.1388 54.6892 29.2009L52.8858 25.5124C52.7474 25.2313 52.6754 24.9222 52.6754 24.6088C52.6754 24.2954 52.7474 23.9863 52.8858 23.7051L54.6892 20.0167C55.1524 19.0788 55.2308 17.997 54.9077 17.0021C54.5845 16.0073 53.8855 15.178 52.9596 14.6912L49.3352 12.7668C49.058 12.6208 48.8182 12.413 48.6342 12.1595C48.4502 11.9061 48.327 11.6137 48.274 11.305L47.5643 7.26115C47.3877 6.23039 46.8155 5.30938 45.9696 4.69446C45.1237 4.07954 44.0711 3.81937 43.0361 3.9694L38.9707 4.54526C38.6606 4.58843 38.3448 4.56063 38.0471 4.46394C37.7494 4.36726 37.4775 4.20422 37.252 3.98712L34.2988 1.13243C33.55 0.402003 32.5453 -0.00683594 31.4993 -0.00683594C30.4532 -0.00683594 29.4485 0.402003 28.6997 1.13243L25.7466 3.98712C25.5211 4.20422 25.2492 4.36726 24.9514 4.46394C24.6537 4.56063 24.3379 4.58843 24.0279 4.54526L19.9614 3.9694C18.9265 3.81988 17.8742 4.08026 17.0284 4.69509C16.1827 5.30992 15.6103 6.23063 15.4333 7.26115L14.7236 11.305C14.6706 11.6138 14.5473 11.9063 14.3631 12.1598C14.1789 12.4133 13.9388 12.621 13.6614 12.7668L10.0409 14.6912C9.115 15.178 8.41596 16.0073 8.09285 17.0021C7.76974 17.997 7.84814 19.0788 8.31133 20.0167L10.1147 23.7051C10.2531 23.9863 10.3251 24.2954 10.3251 24.6088C10.3251 24.9222 10.2531 25.2313 10.1147 25.5124L8.3074 29.2009C7.84421 30.1388 7.7658 31.2206 8.08891 32.2154C8.41202 33.2103 9.11106 34.0396 10.0369 34.5264L13.6653 36.4508C13.7385 36.4946 13.8089 36.5429 13.876 36.5955L0.291633 50.1799C0.167253 50.3041 0.0784058 50.4594 0.0343233 50.6296C-0.00975924 50.7997 -0.00746898 50.9786 0.0409561 51.1476C0.0893812 51.3166 0.182174 51.4695 0.309694 51.5905C0.437214 51.7115 0.594808 51.7961 0.766101 51.8356L9.21499 53.7857L11.165 62.2346C11.2045 62.4058 11.2892 62.5634 11.4102 62.691C11.5312 62.8185 11.6841 62.9113 11.8531 62.9597C12.0221 63.0081 12.2009 63.0104 12.3711 62.9663C12.5413 62.9223 12.6965 62.8334 12.8208 62.709L28.0618 47.467L28.7007 48.0861C29.4496 48.8163 30.4543 49.225 31.5003 49.225C32.5463 49.225 33.5509 48.8163 34.2998 48.0861L34.9387 47.467L50.1827 62.711C50.3069 62.8354 50.4622 62.9242 50.6324 62.9683C50.8025 63.0124 50.9814 63.0101 51.1504 62.9617C51.3194 62.9132 51.4723 62.8205 51.5933 62.6929C51.7143 62.5654 51.7989 62.4078 51.8384 62.2365L53.7885 53.7876L62.2374 51.8376C62.4086 51.7981 62.5662 51.7135 62.6938 51.5925C62.8213 51.4715 62.9141 51.3185 62.9625 51.1495C63.0109 50.9806 63.0132 50.8017 62.9691 50.6315C62.9251 50.4613 62.8362 50.3061 62.7118 50.1819ZM12.681 60.063L10.9928 52.7452C10.9513 52.5653 10.8601 52.4006 10.7296 52.2701C10.599 52.1395 10.4344 52.0483 10.2545 52.0069L2.93665 50.3187L14.819 38.4363L15.4362 41.9564C15.6137 42.9867 16.1862 43.9071 17.0318 44.5219C17.8775 45.1366 18.9296 45.3972 19.9644 45.2482L24.0298 44.6723C24.3399 44.6296 24.6555 44.6576 24.9532 44.7543C25.2509 44.8509 25.5228 45.0137 25.7485 45.2305L26.6453 46.0977L12.681 60.063ZM30.07 46.6706L28.746 45.3909L27.1178 43.8159C26.3708 43.0888 25.3695 42.682 24.3271 42.6819C24.1358 42.6822 23.9447 42.6957 23.7552 42.7223L19.6878 43.2981C19.1587 43.3759 18.6201 43.2434 18.1876 42.9289C17.755 42.6145 17.4628 42.1431 17.3735 41.6158L16.6638 37.572C16.5767 37.1129 16.4101 36.6725 16.1716 36.2707C16.1493 36.2228 16.1233 36.1767 16.0938 36.1329C15.7263 35.5349 15.2074 35.0446 14.5897 34.7114L10.9623 32.787C10.4887 32.5388 10.131 32.1153 9.96549 31.6069C9.79996 31.0985 9.83974 30.5456 10.0763 30.0662L11.8797 26.3807C12.1502 25.8302 12.2909 25.2251 12.2909 24.6117C12.2909 23.9984 12.1502 23.3933 11.8797 22.8428L10.0763 19.1544C9.83974 18.6749 9.79996 18.122 9.96549 17.6136C10.131 17.1053 10.4887 16.6818 10.9623 16.4336L14.5887 14.5091C15.1314 14.2236 15.6011 13.8172 15.9616 13.3211C16.3221 12.8251 16.5637 12.2528 16.6677 11.6485L17.3774 7.6047C17.4651 7.07719 17.7562 6.60514 18.1882 6.29001C18.6203 5.97488 19.1587 5.84183 19.6878 5.91945L23.7542 6.49531C24.361 6.58243 24.9797 6.52914 25.5627 6.33953C26.1457 6.14993 26.6774 5.82907 27.1168 5.40167L30.07 2.54698C30.4524 2.1736 30.9657 1.96458 31.5003 1.96458C32.0348 1.96458 32.5481 2.1736 32.9305 2.54698L35.8837 5.40167C36.3229 5.82917 36.8544 6.15016 37.4372 6.33994C38.02 6.52971 38.6386 6.5832 39.2453 6.49629L43.3128 5.91945C43.8419 5.84143 44.3805 5.97386 44.8132 6.28835C45.2458 6.60284 45.538 7.07435 45.627 7.60175L46.3368 11.6456C46.4408 12.2497 46.6823 12.8219 47.0426 13.3179C47.4029 13.8139 47.8724 14.2204 48.4148 14.5062L52.0422 16.4306C52.5157 16.6788 52.8734 17.1023 53.0389 17.6107C53.2045 18.119 53.1647 18.672 52.9281 19.1514L51.1208 22.8369C50.8503 23.3874 50.7096 23.9925 50.7096 24.6058C50.7096 25.2192 50.8503 25.8243 51.1208 26.3748L52.9242 30.0632C53.1608 30.5427 53.2005 31.0956 53.035 31.6039C52.8695 32.1123 52.5118 32.5358 52.0382 32.784L48.4118 34.7085C47.8691 34.994 47.3994 35.4004 47.0389 35.8965C46.6784 36.3925 46.4368 36.9648 46.3328 37.5691L45.6231 41.6129C45.5342 42.1398 45.2428 42.6111 44.8111 42.926C44.3794 43.2409 43.8416 43.3745 43.3128 43.2981L39.2443 42.7213C38.6375 42.6343 38.0188 42.6876 37.4359 42.8772C36.8529 43.0668 36.3212 43.3876 35.8817 43.8149L32.9286 46.6696C32.5463 47.0425 32.0335 47.2514 31.4995 47.2516C30.9654 47.2517 30.4525 47.0433 30.07 46.6706ZM52.746 52.0069C52.5661 52.0483 52.4015 52.1395 52.2709 52.2701C52.1404 52.4006 52.0492 52.5653 52.0077 52.7452L50.3195 60.063L36.3542 46.0977L37.25 45.2305C37.4759 45.014 37.7479 44.8513 38.0455 44.7547C38.3431 44.658 38.6587 44.6299 38.9687 44.6723L43.0352 45.2482C44.07 45.3974 45.1222 45.137 45.9679 44.5222C46.8136 43.9074 47.386 42.9868 47.5633 41.9564L48.1805 38.4363L60.0639 50.3187L52.746 52.0069Z" fill="#313131"/>
<path d="M46.2656 24.6094C46.2662 21.0741 44.9975 17.6561 42.6904 14.9773C42.6096 14.8694 42.5075 14.7792 42.3904 14.7124C42.2733 14.6456 42.1438 14.6035 42.0098 14.5888C41.8758 14.5741 41.7402 14.5871 41.6114 14.6269C41.4827 14.6668 41.3634 14.7326 41.2612 14.8205C41.1589 14.9083 41.0757 15.0162 41.0169 15.1374C40.958 15.2587 40.9247 15.3908 40.919 15.5254C40.9132 15.6601 40.9352 15.7945 40.9836 15.9204C41.0319 16.0462 41.1056 16.1608 41.2 16.257C43.3124 18.7141 44.4127 21.8818 44.2785 25.1193C44.1442 28.3568 42.7854 31.4225 40.4768 33.6963C38.1683 35.9701 35.0823 37.2822 31.8431 37.3674C28.6039 37.4525 25.4533 36.3042 23.0285 34.1548C20.6037 32.0054 19.0858 29.0153 18.7817 25.7893C18.4776 22.5633 19.41 19.3422 21.3904 16.7775C23.3708 14.2128 26.2514 12.496 29.4494 11.9743C32.6474 11.4526 35.9242 12.165 38.617 13.9673C38.7242 14.0438 38.8456 14.0981 38.9741 14.1269C39.1026 14.1556 39.2356 14.1583 39.3652 14.1348C39.4948 14.1112 39.6183 14.0619 39.7284 13.9898C39.8386 13.9177 39.9332 13.8241 40.0066 13.7148C40.0799 13.6055 40.1306 13.4825 40.1557 13.3532C40.1807 13.2239 40.1795 13.0909 40.1522 12.9621C40.1248 12.8333 40.072 12.7112 39.9966 12.6032C39.9213 12.4952 39.8251 12.4034 39.7136 12.3332C36.9779 10.502 33.7087 9.63746 30.4253 9.87707C27.142 10.1167 24.0329 11.4467 21.592 13.6557C19.1511 15.8648 17.5185 18.8262 16.9535 22.0694C16.3885 25.3126 16.9235 28.6517 18.4736 31.556C20.0237 34.4603 22.4999 36.7633 25.5088 38.099C28.5177 39.4348 31.8867 39.7268 35.0805 38.9285C38.2743 38.1302 41.1098 36.2874 43.1363 33.6931C45.1629 31.0987 46.2643 27.9015 46.2656 24.6094Z" fill="#313131"/>
<path d="M37.1848 19.9946L29.5145 28.0724L25.8408 23.8868C25.7582 23.7813 25.655 23.6938 25.5374 23.6296C25.4198 23.5654 25.2904 23.5259 25.157 23.5134C25.0236 23.501 24.889 23.5159 24.7616 23.5573C24.6342 23.5987 24.5166 23.6657 24.4159 23.7541C24.3153 23.8425 24.2337 23.9506 24.1763 24.0716C24.1189 24.1927 24.0868 24.3241 24.0819 24.458C24.0771 24.5919 24.0996 24.7254 24.1482 24.8503C24.1967 24.9751 24.2703 25.0888 24.3643 25.1842L28.7437 30.1799C28.8339 30.2829 28.9446 30.3659 29.0686 30.4237C29.1927 30.4815 29.3275 30.5128 29.4643 30.5156H29.484C29.6176 30.5155 29.7497 30.4882 29.8724 30.4354C29.9951 30.3826 30.1058 30.3054 30.1977 30.2085L38.6092 21.3491C38.703 21.2564 38.7772 21.1457 38.8275 21.0237C38.8777 20.9017 38.9029 20.7709 38.9016 20.639C38.9002 20.507 38.8724 20.3767 38.8197 20.2558C38.767 20.1348 38.6905 20.0257 38.5948 19.9349C38.4991 19.8441 38.3862 19.7734 38.2626 19.7271C38.1391 19.6808 38.0075 19.6599 37.8757 19.6654C37.7439 19.671 37.6145 19.703 37.4953 19.7596C37.3761 19.8161 37.2695 19.896 37.1818 19.9946H37.1848Z" fill="#313131"/>
</g>
<defs>
<clipPath id="clip0_7348_11">
<rect width="63" height="63" fill="white"/>
</clipPath>
</defs>
</svg>
