<svg width="63" height="63" viewBox="0 0 63 63" fill="none" xmlns="http://www.w3.org/2000/svg">
<path d="M51.0029 23.1975H47.0366L48.2316 9.47659C48.2338 9.45173 48.2342 9.42725 48.2343 9.40276C48.2343 9.40067 48.2346 9.3987 48.2346 9.39661C48.2346 9.39624 48.2346 9.39599 48.2346 9.39563C48.2346 9.02218 48.0093 8.69302 47.6781 8.54992C47.6753 8.54869 47.6726 8.54721 47.6698 8.54598C47.6492 8.53737 47.6279 8.52999 47.6065 8.52285C47.5985 8.52027 47.5909 8.51707 47.5829 8.51461C47.5654 8.50931 47.5475 8.50513 47.5296 8.50082C47.5171 8.49787 47.505 8.4943 47.4923 8.49184C47.4767 8.48877 47.4605 8.4868 47.4445 8.48446C47.4295 8.48224 47.4147 8.47966 47.3996 8.47831C47.397 8.47806 47.3946 8.47757 47.3921 8.47732C47.3758 8.47585 47.3598 8.47609 47.3437 8.47548C47.3329 8.47511 47.3223 8.47388 47.3115 8.47388H47.2999C47.2989 8.47388 47.2979 8.47388 47.2971 8.47388H28.4252C27.9158 8.47388 27.5023 8.88732 27.5023 9.39673C27.5023 9.90492 27.9158 10.3196 28.4252 10.3196H46.3055L44.4689 31.4068C44.4687 31.4084 44.4687 31.41 44.4685 31.4116L44.0051 36.7323H11.9378L12.4742 31.1954H18.5799C19.0897 31.1954 19.5028 30.7822 19.5028 30.2726C19.5028 29.7629 19.0897 29.3497 18.5799 29.3497H12.6531L13.7856 17.6608H23.5033C24.0131 17.6608 24.4261 17.2476 24.4261 16.738C24.4261 16.2283 24.0131 15.8151 23.5033 15.8151H13.9645L14.4971 10.3196H24.7337C25.2419 10.3196 25.6566 9.90492 25.6566 9.39673C25.6566 8.88732 25.2419 8.47388 24.7337 8.47388H13.6595C13.659 8.47388 13.6586 8.474 13.6581 8.474C13.2246 8.47388 12.8486 8.77904 12.7577 9.20207C12.7571 9.20515 12.756 9.2081 12.7553 9.21118C12.7507 9.23419 12.7476 9.25769 12.7445 9.28131C12.7436 9.28882 12.742 9.29596 12.7413 9.30346C12.7412 9.30494 12.7408 9.30629 12.7407 9.30777L12.1102 15.8151H0.922855C0.41307 15.8151 0 16.2283 0 16.738C0 17.2476 0.41307 17.6608 0.922855 17.6608H11.9313L10.7988 29.3497H7.50613C6.99635 29.3497 6.58328 29.7629 6.58328 30.2726C6.58328 30.7822 6.99635 31.1954 7.50613 31.1954H10.62L10.0033 37.5596C10.0031 37.5605 10.0031 37.5615 10.003 37.5624L9.04952 47.4036C9.04939 47.4047 9.04927 47.4059 9.04915 47.4069L9.04878 47.4105C9.04755 47.4233 9.04767 47.4358 9.04693 47.4486C9.04607 47.4656 9.04435 47.4822 9.04435 47.4995C9.04435 47.5002 9.04447 47.5009 9.04447 47.5018C9.04447 47.5255 9.0462 47.5489 9.04792 47.5723C9.04866 47.5798 9.04841 47.5874 9.04927 47.5948C9.05173 47.6187 9.05579 47.6422 9.0601 47.6656C9.06133 47.6725 9.06195 47.6795 9.0633 47.6862C9.06687 47.704 9.07191 47.7211 9.07659 47.7384C9.07979 47.7506 9.08237 47.763 9.08606 47.775C9.08717 47.7783 9.08865 47.7815 9.08963 47.7849C9.1343 47.9222 9.21009 48.0455 9.30902 48.1462C9.31087 48.148 9.31235 48.1501 9.31419 48.1519C9.32404 48.1617 9.33474 48.1706 9.34508 48.1799C9.40869 48.2382 9.48055 48.2877 9.55918 48.3265C9.57555 48.3346 9.59166 48.3431 9.6084 48.3501C9.61344 48.3523 9.61886 48.3538 9.62403 48.3557C9.64716 48.365 9.67041 48.3738 9.69441 48.3813C9.69662 48.382 9.69872 48.3823 9.70093 48.3831C9.72825 48.3912 9.75581 48.3983 9.78399 48.4041C9.78768 48.4048 9.79149 48.4051 9.79506 48.4058C9.82189 48.4109 9.84883 48.4152 9.87627 48.4179C9.87689 48.4179 9.87738 48.418 9.878 48.4181C9.90827 48.4211 9.93829 48.4226 9.96807 48.4226C9.96844 48.4226 9.96893 48.4224 9.96942 48.4224H14.0777C14.5314 51.862 17.4802 54.526 21.0418 54.526C24.6032 54.526 27.552 51.862 28.0057 48.4224H42.8082C43.262 51.862 46.2107 54.526 49.7722 54.526C53.3335 54.526 56.2826 51.862 56.7364 48.4224H60.8457C60.8463 48.4224 60.847 48.4226 60.8477 48.4226C60.8784 48.4226 60.9087 48.4207 60.9387 48.4178C60.9441 48.4173 60.9493 48.4162 60.9547 48.4155C60.9787 48.4127 61.0026 48.4094 61.026 48.4047C61.036 48.4027 61.0458 48.4 61.0557 48.3977C61.0738 48.3935 61.092 48.3891 61.1097 48.3838C61.1218 48.3802 61.1335 48.376 61.1453 48.372C61.1604 48.3668 61.1756 48.3614 61.1905 48.3554C61.2033 48.3503 61.2154 48.3448 61.2279 48.3393C61.2414 48.333 61.2549 48.3266 61.2681 48.3198C61.2807 48.3134 61.2927 48.3068 61.3048 48.2999C61.3175 48.2925 61.33 48.2849 61.3424 48.277C61.354 48.2696 61.3656 48.2621 61.3766 48.2542C61.3892 48.2455 61.4011 48.2363 61.4133 48.2269C61.4234 48.2189 61.4336 48.211 61.4435 48.2027C61.4561 48.192 61.4681 48.1808 61.4801 48.1693C61.4885 48.1613 61.4972 48.1535 61.5053 48.1451C61.5181 48.132 61.5303 48.1183 61.5425 48.1044C61.549 48.0968 61.5558 48.0896 61.5621 48.082C61.5756 48.0652 61.5879 48.048 61.6002 48.0306C61.6044 48.0246 61.6091 48.019 61.6131 48.0128C61.6281 47.9903 61.6423 47.9672 61.6553 47.9433C61.6563 47.9418 61.6573 47.9405 61.6579 47.9389C61.6718 47.9133 61.6846 47.8871 61.6961 47.86C61.6993 47.8522 61.7017 47.8442 61.7048 47.8365C61.7123 47.8174 61.7197 47.7983 61.726 47.7785C61.73 47.7657 61.733 47.7526 61.7366 47.7396C61.7406 47.7243 61.7449 47.709 61.7484 47.6934C61.7514 47.6795 61.7534 47.6652 61.7557 47.651C61.7578 47.6386 61.7605 47.6264 61.7621 47.6138C61.8013 47.3002 62.5239 41.5024 62.8467 37.7534C62.8471 37.7498 62.8472 37.7461 62.8475 37.7425C62.9404 36.6618 63 35.7518 63 35.1946C63 28.5794 57.6182 23.1975 51.0029 23.1975ZM46.8758 25.0434H50.6512L50.169 30.5801H46.3935L46.8758 25.0434ZM21.0421 52.6801C18.1853 52.6801 15.8612 50.356 15.8612 47.4993C15.8612 44.6427 18.1854 42.3185 21.0421 42.3185C23.8988 42.3185 26.2229 44.6427 26.2229 47.4993C26.2229 50.356 23.8988 52.6801 21.0421 52.6801ZM49.7722 52.6801C46.9155 52.6801 44.5915 50.356 44.5915 47.4993C44.5915 44.6427 46.9156 42.3185 49.7722 42.3185C52.629 42.3185 54.9531 44.6427 54.9531 47.4993C54.9531 50.356 52.629 52.6801 49.7722 52.6801ZM60.0303 46.5761H56.7366C56.2831 43.1363 53.3341 40.4722 49.7724 40.4722C46.2109 40.4722 43.262 43.1364 42.8084 46.5761H28.0061C27.5525 43.1363 24.6037 40.4722 21.0421 40.4722C17.4805 40.4722 14.5314 43.1364 14.0778 46.5761H10.9839L11.759 38.5775H44.8508V38.578C44.8513 38.578 44.8516 38.578 44.8521 38.578C44.883 38.578 44.9136 38.5763 44.9439 38.5732C44.9496 38.5727 44.9551 38.5715 44.9608 38.5708C44.9849 38.5679 45.0089 38.5645 45.0325 38.5598C45.0427 38.5577 45.0527 38.5549 45.0628 38.5524C45.0812 38.548 45.0997 38.5437 45.1177 38.5383C45.13 38.5346 45.1416 38.5302 45.1536 38.526C45.1691 38.5206 45.1846 38.5153 45.1996 38.5091C45.2125 38.5038 45.2249 38.4979 45.2375 38.492C45.2512 38.4857 45.2648 38.4795 45.278 38.4726C45.2905 38.4659 45.3028 38.4588 45.3153 38.4517C45.3279 38.4443 45.3405 38.4368 45.3528 38.4289C45.3647 38.4211 45.3761 38.413 45.3875 38.4049C45.3997 38.3963 45.4115 38.3874 45.4233 38.3782C45.4339 38.3697 45.4443 38.361 45.4547 38.352C45.4664 38.3419 45.4778 38.3316 45.4889 38.3209C45.4982 38.3119 45.5076 38.3026 45.5167 38.2932C45.5278 38.2816 45.5385 38.2697 45.5491 38.2575C45.5573 38.2479 45.5654 38.2383 45.5733 38.2285C45.5835 38.2155 45.5932 38.2022 45.6028 38.1888C45.6101 38.1787 45.6171 38.1686 45.624 38.1583C45.633 38.1444 45.6416 38.1301 45.6498 38.1156C45.6561 38.1048 45.6625 38.094 45.6682 38.0829C45.6759 38.0684 45.6826 38.0536 45.6896 38.0387C45.695 38.0268 45.7005 38.0151 45.7055 38.0028C45.7115 37.9883 45.7165 37.9734 45.7218 37.9585C45.7264 37.9453 45.7312 37.9322 45.7352 37.9186C45.7393 37.9043 45.7426 37.8897 45.7463 37.8752C45.7499 37.8605 45.7538 37.846 45.7566 37.8311C45.7595 37.8166 45.7612 37.8018 45.7634 37.7871C45.7656 37.7718 45.7682 37.7568 45.7697 37.7413C45.7699 37.7391 45.7704 37.737 45.7705 37.7348L46.2331 32.4253H51.0026C53.8301 32.4253 55.1054 33.8903 56.4554 35.4414C57.5693 36.7212 58.8129 38.1492 60.9269 38.4976C60.6584 41.3363 60.2244 44.9804 60.0303 46.5761ZM61.0846 36.6482C59.7133 36.3686 58.8695 35.4045 57.8474 34.2302C56.5691 32.7616 55.0084 30.9694 52.0168 30.6354L52.4942 25.1539C57.3871 25.8776 61.1543 30.104 61.1543 35.1948C61.1543 35.5407 61.1285 36.0433 61.0846 36.6482Z" fill="#313131"/>
<path d="M21.0421 44.1155C19.1763 44.1155 17.6583 45.6334 17.6583 47.4993C17.6583 49.3652 19.1763 50.8831 21.0421 50.8831C22.9078 50.8831 24.4259 49.3652 24.4259 47.4993C24.4259 45.6335 22.9078 44.1155 21.0421 44.1155ZM21.0421 49.0374C20.1939 49.0374 19.504 48.3475 19.504 47.4993C19.504 46.6511 20.1939 45.9612 21.0421 45.9612C21.8902 45.9612 22.5802 46.6511 22.5802 47.4993C22.5802 48.3475 21.8901 49.0374 21.0421 49.0374Z" fill="#313131"/>
<path d="M49.7722 44.1155C47.9064 44.1155 46.3884 45.6334 46.3884 47.4993C46.3884 49.3652 47.9064 50.8831 49.7722 50.8831C51.6379 50.8831 53.156 49.3652 53.156 47.4993C53.156 45.6335 51.6379 44.1155 49.7722 44.1155ZM49.7722 49.0374C48.924 49.0374 48.2341 48.3475 48.2341 47.4993C48.2341 46.6511 48.924 45.9612 49.7722 45.9612C50.6203 45.9612 51.3103 46.6511 51.3103 47.4993C51.3103 48.3475 50.6203 49.0374 49.7722 49.0374Z" fill="#313131"/>
<path d="M8.73639 23.1978H4.22474C3.71495 23.1978 3.30188 23.6109 3.30188 24.1206C3.30188 24.6303 3.71495 25.0435 4.22474 25.0435H8.73639C9.24617 25.0435 9.65924 24.6303 9.65924 24.1206C9.65924 23.6109 9.24617 23.1978 8.73639 23.1978Z" fill="#313131"/>
</svg>
